v 17.2 2.406917 3.2
v 27.2 2.606917 3.2
v 27.2 2.806917 0
v 16.8 2.406917 3.2
v 17.2 2.406917 3.2
v 27.2 2.806917 0
v 23.2 2.606917 25.6
v 21.2 2.806917 26.8
v 23.6 2.606917 26.8
v 24.4 2.806917 25.6
v 15.2 2.406917 3.6
v 16 2.406917 3.6
v 16.8 2.406917 3.2
v 14.4 2.406917 3.6
v 15.2 2.406917 3.6
v 16.8 2.406917 3.2
v 6.4 2.606917 25.6
v 5.6 2.606917 25.6
v 5.6 2.606917 26.4
v 26.4 2.806917 6.8
v 27.2 2.806917 6
v 27.2 2.606917 3.2
v 17.2 2.406917 3.2
v 19.2 2.806917 4.4
v 19.2 2.806917 6.4
v 15.6 2.606917 8.400001
v 26.8 2.606917 8.400001
v 26.4 2.806917 6.8
v 19.2 2.806917 4.4
v 19.2 2.806917 6.4
v 26.4 2.806917 6.8
v 14.4 2.406917 3.6
v 16.8 2.406917 3.2
v 27.2 2.806917 0
v 0 2.406917 0
v 7.6 2.606917 25.6
v 9.6 2.806917 24.4
v 5.2 2.406917 24.4
v 6.4 2.606917 25.6
v 7.6 2.606917 25.6
v 8.8 2.606917 25.6
v 9.6 2.806917 24.4
v 20.4 2.406917 21.2
v 27.2 2.806917 21.2
v 26.8 2.606917 8.400001
v 15.6 2.606917 8.400001
v 15.6 2.606917 8.400001
v 14.8 2.806917 8.400001
v 16.4 2.406917 21.2
v 18.4 2.406917 21.2
v 19.6 2.406917 21.2
v 20.4 2.406917 21.2
v 15.6 2.606917 8.400001
v 18.4 2.406917 21.2
v 19.6 2.406917 21.2
v 15.6 2.606917 8.400001
v 14.8 2.806917 21.6
v 16 2.406917 22
v 16.4 2.406917 21.2
v 14.8 2.806917 21.6
v 16.4 2.406917 21.2
v 1.2 2.406917 21.2
v 1.2 2.406917 21.6
v 23.2 2.806917 23.2
v 23.2 2.606917 25.6
v 24.4 2.806917 25.6
v 20.4 2.406917 21.2
v 21.6 2.406917 22.8
v 23.2 2.806917 23.2
v 27.2 2.806917 21.2
v 27.2 2.806917 25.6
v 27.2 2.806917 21.2
v 23.2 2.806917 23.2
v 24.4 2.806917 25.6
v 1.2 2.406917 23.2
v 0 2.406917 24.4
v 2.8 2.406917 24.4
v 1.2 2.406917 21.6
v 1.2 2.406917 23.2
v 2.8 2.406917 24.4
v 5.2 2.406917 24.4
v 12 2.806917 24.4
v 13.6 2.806917 24.4
v 14.8 2.806917 21.6
v 9.6 2.806917 24.4
v 14.8 2.806917 21.6
v 1.2 2.406917 21.6
v 5.2 2.406917 24.4
v 9.6 2.806917 24.4
v 12 2.806917 24.4
v 14.8 2.806917 21.6
v 0 2.406917 24.8
v 2.8 2.406917 24.4
v 0 2.406917 24.4
v 5.2 2.406917 24.4
v 5.6 2.606917 25.6
v 6.4 2.606917 25.6
v 16.4 2.406917 21.2
v 14.8 2.806917 8.400001
v 12.8 2.606917 7.2
v 0 2.406917 0
v 0 2.406917 19.2
v 1.2 2.406917 21.2
v 12.8 2.606917 7.2
v 14.4 2.406917 3.6
v 0 2.406917 0
v -24.4 2.406917 2
v -25.6 2.406917 2.4
v -25.2 2.406917 4
v -20 2.806917 6.8
v -25.2 2.406917 4
v -26.4 2.406917 4.4
v -26.4 2.606917 6.8
v -20 2.806917 6.8
v 3.814697E-06 2.406917 24.8
v -1.199997 2.406917 24.4
v -1.999996 2.406917 24.4
v -23.6 2.406917 0
v -24.4 2.406917 2
v -20 2.806917 6.8
v -17.6 2.806917 6.8
v -26.4 2.606917 6.8
v -26.4 2.606917 7.2
v -24.4 2.606917 7.2
v -23.2 2.606917 7.2
v -20.4 2.806917 7.2
v -20 2.806917 6.8
v -26.4 2.606917 6.8
v -24.4 2.606917 7.2
v -23.2 2.606917 7.2
v -26.4 2.606917 6.8
v 3.814697E-06 2.406917 24.8
v 3.814697E-06 2.406917 24.4
v -1.199997 2.406917 24.4
v -24.4 2.606917 7.2
v -26.4 2.606917 7.2
v -26.4 2.806917 8.8
v -21.6 2.606917 10
v -20 2.806917 10
v -20.4 2.806917 7.2
v -23.2 2.606917 7.2
v -20 2.806917 10
v -21.6 2.606917 10
v -23.2 2.406917 11.2
v -20 2.806917 10
v -23.2 2.406917 11.2
v -22.8 2.406917 14
v -17.6 2.806917 10
v -4.399996 2.406917 24.4
v -5.199997 2.406917 24.4
v -5.199997 2.406917 25.2
v -25.6 2.406917 15.6
v -26.4 2.406917 15.6
v -26.4 2.406917 18.4
v 3.814697E-06 2.406917 0
v -23.6 2.406917 0
v -17.6 2.806917 6.8
v -24.4 2.406917 15.6
v -25.6 2.406917 15.6
v -26.4 2.406917 18.4
v -11.2 2.606917 24.4
v -18.4 2.406917 24.4
v -13.6 2.406917 24.8
v -17.6 2.806917 25.6
v -14 2.606917 25.6
v -13.6 2.406917 24.8
v -18.4 2.406917 24.4
v -26.4 2.406917 18.4
v -26.4 2.406917 19.2
v -25.2 2.406917 18.8
v -25.2 2.406917 18.8
v -2.799997 2.406917 18.8
v -2.399996 2.406917 18.4
v -26.4 2.406917 18.4
v -17.6 2.806917 10
v -2.399996 2.406917 18.4
v -1.199997 2.406917 18.4
v -7.599997 2.606917 22
v -3.599997 2.406917 22
v -3.999996 2.406917 20.8
v -8.399996 2.606917 22
v -7.599997 2.606917 22
v -3.999996 2.406917 20.8
v -2.799997 2.406917 18.8
v -25.2 2.406917 18.8
v -23.2 2.406917 20
v -23.2 2.406917 20
v -22.8 2.406917 22
v -8.399996 2.606917 22
v -22.8 2.406917 22
v -23.2 2.406917 22.8
v -22 2.406917 22.8
v -22.8 2.406917 22
v -22 2.406917 22.8
v -21.2 2.406917 22.8
v -21.2 2.406917 22.8
v -9.199997 2.806917 22.8
v -8.399996 2.606917 22
v -22.8 2.406917 22
v -5.599997 2.406917 23.2
v -5.199997 2.406917 24.4
v -4.399996 2.406917 24.4
v -3.599997 2.406917 23.2
v -1.999996 2.406917 24.4
v -1.199997 2.406917 24.4
v -3.599997 2.406917 23.2
v -4.399996 2.406917 24.4
v -1.999996 2.406917 24.4
v -3.599997 2.406917 23.2
v -3.599997 2.406917 22
v -7.599997 2.606917 22
v -5.599997 2.406917 23.2
v -3.599997 2.406917 23.2
v -28.4 2.606917 22.4
v -28.4 2.806917 24.4
v -27.6 2.806917 24
v -27.6 2.606917 22.4
v -11.2 2.606917 24.4
v -9.599997 2.606917 24.4
v -9.199997 2.806917 22.8
v -21.2 2.406917 22.8
v -20 2.406917 24.4
v -19.2 2.406917 24.4
v -21.2 2.406917 22.8
v -19.2 2.406917 24.4
v -18.4 2.406917 24.4
v -18.4 2.406917 24.4
v -11.2 2.606917 24.4
v -9.199997 2.806917 22.8
v -21.2 2.406917 22.8
v -22.8 2.406917 14
v -24.4 2.406917 15.6
v -26.4 2.406917 18.4
v -2.399996 2.406917 18.4
v -17.6 2.806917 10
v -1.199997 2.406917 18.4
v 3.814697E-06 2.406917 19.2
v 3.814697E-06 2.406917 0
v -17.6 2.806917 6.8
v -17.6 2.806917 10
v -1.199997 2.406917 18.4
v 3.814697E-06 2.406917 0
v 2.8 0.7069168 -86.00001
v 4 0.8069167 -86.00001
v 1.6 0.6069169 -86.00001
v 1.6 0.6069169 -86.00001
v 2.4 0.6069169 -86.00001
v 2.8 0.6069169 -86.00001
v 8.400001 3.206917 -72.8
v 10.8 3.606917 -72.8
v 10.8 3.606917 -84.8
v 6.8 3.206917 -72.8
v 8.400001 3.206917 -72.8
v 10.8 3.606917 -84.8
v 27.2 2.806917 0
v 27.2 2.806917 -2
v 10.8 2.606917 -2
v 0 2.406917 0
v 11.2 0.6069169 -78.4
v 11.2 0.8069167 -76.00001
v 12 1.006917 -76.00001
v 12 0.6069169 -78.4
v 10.8 2.606917 -2
v 10 2.606917 -2
v 0 2.406917 0
v 12 3.606917 -68.4
v 12 3.606917 -69.2
v 10.8 3.606917 -69.60001
v 8.8 3.606917 -68
v 8.400001 3.206917 -72.8
v 8.8 3.606917 -68
v 10.8 3.606917 -69.60001
v 10.8 3.606917 -72.8
v 6.8 4.806917 -69.60001
v 6.4 3.606917 -71.2
v 5.6 3.606917 -71.2
v 0 3.606917 -71.60001
v 5.6 3.606917 -71.2
v 6.8 3.206917 -72.8
v 10.8 3.606917 -84.8
v 0 3.206917 -84.4
v 5.6 3.606917 -71.2
v 6.4 3.606917 -71.2
v 6.4 3.606917 -71.60001
v 7.6 5.006917 -68
v 7.6 5.006917 -70
v 6.8 4.806917 -69.60001
v 5.6 3.606917 -71.2
v 6.4 3.606917 -71.60001
v 6.8 3.206917 -72.8
v 8 2.806917 -5.200005
v 7.2 2.806917 -6.800003
v 2.8 2.806917 -7.600006
v 6.8 0.6926311 -68.4
v 5.2 0.8069167 -68.4
v 8 0.6069169 -68.4
v 8 0.6069169 -68.4
v 7.2 0.6069169 -68.4
v 6.8 0.6069169 -68.4
v 10.8 5.206917 -35.6
v 12 5.206917 -35.6
v 10.8 5.206917 -36.40001
v 4.4 5.206917 -66.8
v 4.4 5.206917 -67.60001
v 3.2 5.206917 -68
v 0 5.206917 -67.60001
v 8.8 4.806917 -35.6
v 10.8 5.206917 -35.6
v 10.8 5.206917 -36.40001
v 6.8 5.206917 -66
v 6.8 5.206917 -67.60001
v 4.4 5.206917 -66.8
v 10.8 5.206917 -36.40001
v 10.8 5.206917 -66
v 8.400001 5.206917 -66
v 3.2 5.206917 -68
v 5.6 3.606917 -71.2
v 0 3.606917 -71.60001
v 0 5.206917 -67.60001
v 10.8 5.206917 -36.40001
v 8.400001 5.206917 -66
v 6.8 5.206917 -66
v 6.8 5.206917 -67.60001
v 7.6 5.206917 -67.60001
v 7.6 5.006917 -68
v 4.4 5.206917 -67.60001
v 4.4 5.206917 -66.8
v 6.8 5.206917 -67.60001
v 7.6 5.006917 -68
v 3.2 5.206917 -68
v 4.4 5.206917 -67.60001
v 6.8 5.206917 -67.60001
v 6.8 5.206917 -66
v 8.400001 5.206917 -66
v 8.400001 5.206917 -66.8
v 7.6 5.206917 -67.60001
v 6.8 5.206917 -67.60001
v 0 2.206917 -66.4
v 0.8 2.206917 -66.8
v 0 2.206917 -66.8
v 8.400001 5.206917 -66
v 10.8 5.206917 -66
v 10.8 5.206917 -66.8
v 8.400001 5.206917 -66.8
v 11.6 2.206917 -63.2
v 11.6 2.206917 -60.8
v 12.4 2.806917 -60.8
v 12.4 2.206917 -63.2
v 11.6 2.206917 -51.6
v 11.6 2.206917 -49.2
v 12.4 2.606917 -49.2
v 12.4 2.206917 -51.6
v 0 2.206917 -49.2
v 0.8 2.406917 -49.6
v 0 2.206917 -49.6
v 0 2.206917 -47.6
v 0.8 2.206917 -48
v 0 2.206917 -48
v 2.8 2.206917 -47.6
v 4 2.406917 -47.6
v 2 2.206917 -48
v 2.8 2.206917 -47.6
v 2 2.206917 -48
v 2 2.606917 -47.2
v 11.6 2.206917 -44.40001
v 11.6 2.406917 -41.6
v 12.4 2.406917 -41.6
v 12.4 2.206917 -44.40001
v 0 4.806917 -35.2
v 0 5.206917 -34.40001
v 8.400001 5.206917 -34.40001
v 7.6 5.006917 -68
v 6.8 4.806917 -69.60001
v 5.6 3.606917 -71.2
v 3.2 5.206917 -68
v 10.8 5.206917 -35.6
v 10.8 5.006917 -28.8
v 12.8 5.206917 -29.2
v 12 5.206917 -35.6
v 0 5.406917 -33.2
v 0 6.406917 -30
v 1.2 6.406917 -29.2
v 0 5.206917 -34.40001
v 0 5.406917 -33.2
v 1.2 6.406917 -29.2
v 9.6 7.006917 -29.2
v 8.400001 5.206917 -34.40001
v 11.6 2.206917 -32.40001
v 11.6 2.406917 -30
v 12.4 2.806917 -30
v 12.4 2.206917 -32.40001
v 10 6.606917 -24
v 10 6.606917 -24.40001
v 9.2 6.406917 -24.8
v 7.6 6.006917 -23.6
v 9.6 6.606917 -13.2
v 10 6.606917 -13.60001
v 10 6.606917 -14.4
v 7.6 6.006917 -14.8
v 0 6.406917 -11.60001
v 7.6 6.006917 -16.8
v 7.6 6.406917 -21.60001
v 0 6.406917 -28
v 0 6.406917 -11.60001
v 7.6 6.006917 -14.8
v 7.6 6.006917 -16.8
v 9.2 6.406917 -11.60001
v 9.6 6.606917 -13.2
v 7.6 6.006917 -14.8
v 0 6.406917 -11.60001
v 7.6 6.006917 -16.8
v 10 6.406917 -17.2
v 10 6.406917 -21.2
v 7.6 6.406917 -21.60001
v 7.6 6.006917 -23.6
v 0.8 6.406917 -28
v 0 6.406917 -28
v 7.6 6.406917 -21.60001
v 7.6 6.006917 -23.6
v 9.2 6.406917 -24.8
v 9.6 7.006917 -29.2
v 1.2 6.406917 -29.2
v 0.8 6.406917 -28
v 10.4 4.806917 -27.2
v 17.2 4.606917 -27.2
v 10.4 4.806917 -28
v 16.4 4.606917 -24
v 15.2 4.806917 -23.6
v 15.2 4.806917 -23.2
v 10.4 4.806917 -27.2
v 10.4 5.006917 -26
v 16 4.606917 -26
v 17.2 4.606917 -27.2
v 16.4 4.606917 -24
v 23.2 4.606917 -16.8
v 23.6 4.606917 -16.8
v 18.4 4.606917 -27.2
v 17.2 4.606917 -27.2
v 16 4.606917 -26
v 19.2 4.606917 -27.2
v 18.4 4.606917 -27.2
v 16 4.606917 -26
v 19.2 4.606917 -27.2
v 16 4.606917 -26
v 16.4 4.606917 -24
v 24 4.606917 -27.2
v 16.4 4.606917 -24
v 15.2 4.806917 -23.2
v 15.2 4.806917 -16.8
v 23.2 4.606917 -16.8
v 24 4.606917 -27.2
v 16.4 4.606917 -24
v 23.6 4.606917 -16.8
v 27.2 4.806917 -16.8
v 27.6 4.806917 -27.2
v 10 6.606917 -24.40001
v 10 6.606917 -24
v 10.4 6.206917 -23.2
v 12 6.606917 -24
v 12.4 6.606917 -24.8
v 10.4 6.206917 -23.2
v 14 5.206917 -23.2
v 12 6.606917 -24
v 14.4 5.206917 -23.2
v 15.2 4.806917 -23.2
v 15.2 4.806917 -23.6
v 14.4 5.206917 -15.2
v 15.2 4.806917 -15.2
v 15.2 4.806917 -16.8
v 14 5.206917 -15.2
v 14.4 5.206917 -15.2
v 15.2 4.806917 -16.8
v 10 6.406917 -17.2
v 10.4 6.206917 -15.2
v 14 5.206917 -15.2
v 14 5.206917 -23.2
v 10.4 6.206917 -23.2
v 10 6.406917 -21.2
v 14.4 5.206917 -23.2
v 14 5.206917 -23.2
v 10 6.406917 -21.2
v 10 6.406917 -17.2
v 14 5.206917 -15.2
v 15.2 4.806917 -16.8
v 15.2 4.806917 -23.2
v 14.4 5.206917 -23.2
v 10 6.406917 -21.2
v 15.2 4.806917 -15.2
v 15.2 4.806917 -14.8
v 16.4 4.606917 -14.4
v 16.4 4.606917 -12.8
v 14 4.806917 -12.4
v 14.8 4.806917 -11.60001
v 17.6 5.006917 -11.60001
v 17.6 5.006917 -11.60001
v 17.6 5.006917 -10.4
v 20.8 5.006917 -10.4
v 20.8 5.006917 -11.60001
v 15.2 4.806917 -16.8
v 15.2 4.806917 -15.2
v 16.4 4.606917 -14.4
v 21.6 4.606917 -14.8
v 23.2 4.606917 -16.8
v 16.4 4.606917 -14.4
v 16.4 4.606917 -12.8
v 17.6 5.006917 -11.60001
v 20.8 5.006917 -11.60001
v 21.6 4.606917 -14.8
v 20.8 5.006917 -11.60001
v 22.8 4.806917 -11.60001
v 21.6 4.606917 -14.8
v 27.2 4.806917 -16.8
v 23.6 4.606917 -16.8
v 26 4.606917 -15.2
v 26 4.606917 -15.2
v 26.4 4.806917 -12.4
v 27.6 4.806917 -12.4
v 27.2 4.806917 -16.8
v 10.4 6.206917 -15.2
v 10 6.606917 -14.4
v 10 6.606917 -13.60001
v 12.4 6.606917 -13.60001
v 12 6.606917 -14.4
v 12 6.606917 -14.4
v 14 5.206917 -15.2
v 10.4 6.206917 -15.2
v 15.2 4.806917 -14.8
v 15.2 4.806917 -15.2
v 14.4 5.206917 -15.2
v 10.4 5.006917 -12.4
v 10.8 5.006917 -10.4
v 12.4 4.806917 -10.8
v 13.2 4.806917 -12
v 14.8 4.806917 -10.4
v 17.6 5.006917 -10.4
v 17.6 5.006917 -11.60001
v 14.8 4.806917 -11.60001
v 24 5.006917 -10.4
v 24 4.806917 -11.60001
v 22.8 4.806917 -11.60001
v 20.8 5.006917 -10.4
v 24 5.006917 -10.4
v 22.8 4.806917 -11.60001
v 20.8 5.006917 -11.60001
v 0 3.806917 -10.8
v 1.6 3.806917 -11.2
v 0 3.806917 -11.2
v 4.4 3.806917 -11.2
v 2.8 4.006917 -11.2
v 5.6 3.806917 -11.2
v 5.6 3.806917 -11.2
v 4.8 3.806917 -11.2
v 4.4 3.806917 -11.2
v 24 4.606917 -8.800003
v 24.8 4.606917 -8.400002
v 24 5.006917 -10.4
v 14.8 4.806917 -10.4
v 13.6 4.606917 -9.600006
v 14 4.606917 -8.800003
v 17.6 5.006917 -10.4
v 24 4.606917 -8.800003
v 24 5.006917 -10.4
v 20.8 5.006917 -10.4
v 17.6 5.006917 -10.4
v 14 4.606917 -8.800003
v 24 4.606917 -8.800003
v 20.8 5.006917 -10.4
v 27.2 2.606917 -8.800003
v 27.2 2.606917 -8
v 28.4 2.606917 -7.600006
v 28.4 2.606917 -9.600006
v 2.8 2.806917 -7.600006
v 2.4 2.806917 -8.800003
v 0 2.806917 -7.200005
v 0 4.806917 -35.2
v 8.400001 5.206917 -34.40001
v 8.8 4.806917 -35.6
v 14.4 3.006917 -6.400002
v 23.6 3.006917 -6.400002
v 24 4.606917 -8.800003
v 14 4.606917 -8.800003
v 14.4 3.006917 -6.400002
v 14 2.806917 -4.800003
v 14.8 2.406917 -3.600006
v 23.6 2.806917 -5.600006
v 23.6 3.006917 -6.400002
v 26.4 2.606917 -3.600006
v 25.2 2.606917 -5.200005
v 23.6 2.806917 -5.600006
v 14.8 2.406917 -3.600006
v 10 2.606917 -2
v 9.2 2.606917 -5.600006
v 8 2.806917 -5.200005
v 6.8 5.206917 -66
v 4.4 5.206917 -66.8
v 0 5.206917 -67.60001
v 0 4.806917 -35.2
v 8.8 4.806917 -35.6
v 10.8 5.206917 -36.40001
v 27.2 2.806917 -2.400002
v 27.2 2.606917 -4
v 26.4 2.606917 -3.600006
v 14.8 2.406917 -3.600006
v 12.4 2.406917 -2.400002
v 27.2 2.806917 -2.400002
v 26.4 2.606917 -3.600006
v 11.2 2.606917 -2.400002
v 12 2.406917 -2.400002
v 11.2 2.806917 -3.200005
v 12 2.406917 -2.400002
v 11.2 2.606917 -2.400002
v 10.8 2.606917 -2
v 12.4 2.406917 -2.400002
v 12 2.406917 -2.400002
v 10.8 2.606917 -2
v 27.2 2.806917 -2
v 27.2 2.806917 -2.400002
v 12.4 2.406917 -2.400002
v 10.8 2.606917 -2
v 2.8 2.806917 -7.600006
v 0 2.806917 -7.200005
v 0 2.406917 0
v 10 2.606917 -2
v 8 2.806917 -5.200005
v 3.814697E-06 0.6069169 -86.00001
v 3.814697E-06 0.6069169 -86.4
v -2.399996 0.6069169 -86.4
v -6.399996 1.206917 -84.8
v -6.399996 0.6069169 -82.8
v -5.599997 0.6069169 -82.8
v -5.599997 0.8069167 -84.8
v -24 2.406917 -1.200005
v -23.6 2.406917 0
v 3.814697E-06 2.406917 0
v -6.399996 3.606917 -84.4
v -6.399996 3.606917 -82.8
v -3.599997 3.206917 -82.8
v -3.599997 3.206917 -82.8
v -2.799997 3.206917 -82.8
v 3.814697E-06 3.206917 -84.4
v -6.399996 3.606917 -84.4
v -3.999996 3.206917 -81.60001
v -3.599997 3.206917 -82.8
v -6.399996 3.606917 -82.8
v -5.999996 3.606917 -79.60001
v -3.199997 3.206917 -79.60001
v -3.999996 3.206917 -81.60001
v -6.399996 3.606917 -82.8
v -18 6.606917 -17.60001
v -25.2 6.406917 -15.2
v -24 6.206917 -14.4
v -25.2 2.406917 -4.800003
v -25.6 2.406917 -4.800003
v -26.4 2.406917 -1.600006
v -5.999996 3.606917 -79.60001
v -6.399996 3.606917 -72.8
v -4.399996 3.206917 -72.8
v -3.199997 3.206917 -79.60001
v -25.6 2.406917 -4.800003
v -26.4 2.406917 -4.800003
v -26.4 2.406917 -1.600006
v -3.199997 3.206917 -79.60001
v -4.399996 3.206917 -72.8
v -2.799997 3.206917 -72.8
v -2.399996 3.206917 -79.60001
v -6.399996 1.006917 -74.8
v -6.399996 0.6069169 -72.8
v -5.599997 0.6069169 -72.8
v -5.599997 0.6069169 -74.8
v -6.399996 3.606917 -72.8
v -6.399996 3.606917 -68.4
v -4.799997 3.606917 -68.4
v -4.399996 3.206917 -72.8
v 3.814697E-06 3.206917 -84.4
v -2.799997 3.206917 -82.8
v -1.999996 3.206917 -81.2
v -2.799997 3.206917 -72.8
v -2.399996 3.606917 -71.60001
v 3.814697E-06 3.606917 -71.60001
v 3.814697E-06 3.206917 -84.4
v -1.999996 3.206917 -81.2
v -2.399996 3.206917 -79.60001
v -4.399996 5.206917 -66.8
v -4.399996 5.206917 -66
v -2.799997 5.206917 -66
v -2.799997 5.206917 -67.60001
v -3.599997 5.006917 -69.2
v -18 6.606917 -17.60001
v -22 6.406917 -12
v -1.199997 6.406917 -12
v 3.814697E-06 6.406917 -28
v -9.599997 6.406917 -27.6
v -2.799997 5.006917 -68.8
v -3.599997 5.006917 -69.2
v -2.799997 5.206917 -67.60001
v 3.814697E-06 0.6069169 -68
v 3.814697E-06 0.6069169 -68.4
v -2.399996 0.6069169 -68.4
v -5.199997 5.206917 -51.2
v -5.999996 5.206917 -51.2
v -5.999996 5.206917 -50
v -4.799997 5.206917 -49.6
v -2.799997 5.206917 -66
v -5.199997 5.206917 -62.4
v -5.999996 5.206917 -59.60001
v 3.814697E-06 5.206917 -67.60001
v -5.999996 5.206917 -66
v -5.999996 5.206917 -64
v -5.199997 5.206917 -63.60001
v -4.399996 5.206917 -66
v -5.999996 5.206917 -59.60001
v -5.199997 5.206917 -52.40001
v -4.799997 5.206917 -49.6
v -2.399996 4.806917 -35.6
v 3.814697E-06 4.806917 -35.2
v 3.814697E-06 5.206917 -67.60001
v -5.199997 5.206917 -52.40001
v -5.199997 5.206917 -51.2
v -4.799997 5.206917 -49.6
v -5.199997 5.206917 -62.4
v -6.799997 5.206917 -62.4
v -5.999996 5.206917 -59.60001
v 3.814697E-06 5.206917 -67.60001
v -2.799997 5.206917 -67.60001
v -2.799997 5.206917 -66
v -2.799997 5.206917 -66
v -4.399996 5.206917 -66
v -5.199997 5.206917 -63.60001
v -5.199997 5.206917 -62.4
v -4.799997 5.206917 -49.6
v -4.799997 5.206917 -35.6
v -2.399996 4.806917 -35.6
v -7.199997 5.206917 -58.8
v -6.799997 5.206917 -52.40001
v -5.199997 5.206917 -52.40001
v -5.999996 5.206917 -59.60001
v -17.2 0.6069169 -67.2
v -17.2 0.6069169 -66.4
v -15.2 0.8069167 -66.4
v -15.2 1.006917 -67.2
v -7.199997 3.606917 -64.8
v -7.199997 3.606917 -67.2
v -8.399996 3.606917 -67.2
v -13.6 3.606917 -66.8
v -13.6 3.206917 -64.8
v -5.999996 5.206917 -66
v -4.399996 5.206917 -66
v -4.399996 5.206917 -66.8
v -5.999996 5.206917 -67.2
v 3.814697E-06 2.206917 -66.4
v 3.814697E-06 2.206917 -66.8
v -1.199997 2.206917 -66.8
v -22.4 3.206917 -65.2
v -24 3.606917 -65.2
v -24 3.606917 -64.8
v -20.8 3.206917 -65.2
v -22.4 3.206917 -65.2
v -24 3.606917 -64.8
v -16.8 3.206917 -64.8
v -18.4 3.206917 -65.2
v -20.8 3.206917 -65.2
v -24 3.606917 -64.8
v -11.2 3.606917 -64
v -7.199997 3.606917 -64
v -7.199997 3.606917 -64.8
v -13.6 3.206917 -64.8
v -10.4 3.606917 -52.8
v -10.4 3.606917 -62
v -11.6 3.206917 -62.4
v -11.6 3.206917 -62.4
v -11.2 3.606917 -64
v -13.6 3.206917 -64.8
v -16.8 3.206917 -64.8
v -11.6 3.206917 -62.4
v -16.8 3.206917 -64.8
v -24 3.606917 -64.8
v -24 3.606917 -50.40001
v -18.8 3.406917 -50.40001
v -10.4 3.606917 -52.8
v -18 3.406917 -50.40001
v -11.2 3.606917 -50.40001
v -11.6 3.206917 -52.40001
v -18.8 3.406917 -50.40001
v -18 3.406917 -50.40001
v -11.6 3.206917 -52.40001
v -10.4 3.606917 -52.8
v -5.999996 5.206917 -51.2
v -5.199997 5.206917 -51.2
v -5.199997 5.206917 -52.40001
v -6.799997 5.206917 -52.40001
v -8.399996 4.406917 -52.8
v -6.799997 5.206917 -52.40001
v -7.199997 5.206917 -58.8
v -8.399996 4.406917 -52.8
v -5.999996 5.206917 -51.2
v -6.799997 5.206917 -52.40001
v -5.199997 5.206917 -62.4
v -5.199997 5.206917 -63.60001
v -5.999996 5.206917 -64
v -6.799997 5.206917 -62.4
v -7.199997 5.206917 -58.8
v -8.399996 4.406917 -62
v -10.4 3.606917 -62
v -10.4 3.606917 -52.8
v -8.399996 4.406917 -52.8
v -6.799997 5.206917 -62.4
v -5.999996 5.206917 -64
v -8.399996 4.406917 -62
v -5.999996 5.206917 -59.60001
v -6.799997 5.206917 -62.4
v -8.399996 4.406917 -62
v -7.199997 5.206917 -58.8
v -25.6 1.206917 -59.2
v -25.6 0.6069169 -56.8
v -24.8 0.6069169 -56.8
v -24.8 0.8069167 -59.2
v -18.8 3.406917 -50.40001
v -24 3.606917 -50.40001
v -20.8 3.606917 -49.6
v -7.599997 3.606917 -49.6
v -7.199997 3.606917 -50.40001
v -8.799997 3.406917 -50.40001
v -11.2 3.606917 -50.40001
v -18 3.406917 -50.40001
v -7.599997 3.606917 -49.6
v -8.799997 3.406917 -50.40001
v -11.2 3.606917 -50.40001
v -7.599997 3.606917 -49.6
v -23.6 0.6069169 -49.6
v -23.6 1.006917 -48.8
v -21.6 0.6069169 -48.8
v -21.6 0.6069169 -49.6
v -12.8 0.6069169 -49.2
v -14 0.8069167 -49.2
v -12 0.6069169 -48.8
v -12.8 0.6069169 -49.2
v -12 0.6069169 -48.8
v -12 0.6069169 -49.6
v 3.814697E-06 2.206917 -49.2
v 3.814697E-06 2.206917 -49.6
v -1.199997 2.206917 -49.6
v 3.814697E-06 2.206917 -47.6
v 3.814697E-06 2.206917 -48
v -1.199997 2.206917 -48
v -6.399996 2.806917 -40.40001
v -6.399996 2.206917 -37.6
v -5.599997 2.206917 -37.6
v -5.599997 2.406917 -40.40001
v -4.799997 5.206917 -32
v -5.999996 5.206917 -31.6
v -5.999996 5.206917 -30.40001
v -2.399996 5.206917 -30.40001
v -2.399996 4.806917 -35.6
v -4.799997 5.206917 -35.6
v -4.799997 5.206917 -32
v -2.399996 5.206917 -30.40001
v 3.814697E-06 6.406917 -30
v 3.814697E-06 5.406917 -33.2
v -0.3999958 6.406917 -30.8
v 3.814697E-06 6.406917 -30
v -0.3999958 6.406917 -30.8
v -1.199997 7.006917 -30.40001
v -19.2 3.806917 -28.8
v -18 4.006917 -28.8
v -20 3.806917 -29.2
v -19.2 3.806917 -28.8
v -20 3.806917 -29.2
v -20 3.806917 -28.40001
v -2.799997 5.006917 -68.8
v -2.799997 5.206917 -67.60001
v 3.814697E-06 5.206917 -67.60001
v 3.814697E-06 3.606917 -71.60001
v -2.399996 3.606917 -71.60001
v -25.6 6.206917 -22.8
v -26.8 6.206917 -22.8
v -26.8 6.406917 -21.60001
v -20.8 6.406917 -27.6
v -22.4 6.406917 -27.6
v -21.6 6.206917 -26
v -20 6.406917 -27.6
v -20.8 6.406917 -27.6
v -21.6 6.206917 -26
v -18.4 6.406917 -27.6
v -20 6.406917 -27.6
v -21.6 6.206917 -26
v -21.6 6.206917 -26
v -24 6.206917 -25.2
v -25.6 6.206917 -22.8
v -25.6 6.206917 -22.8
v -26.8 6.406917 -21.60001
v -20 6.606917 -21.60001
v -21.6 6.206917 -26
v -9.599997 6.406917 -27.6
v -11.6 6.406917 -27.6
v -18.8 6.606917 -21.60001
v -21.6 6.206917 -26
v -20 6.606917 -21.60001
v -18.8 6.606917 -21.60001
v -11.6 6.406917 -27.6
v -18.4 6.406917 -27.6
v -23.6 2.406917 -5.200005
v -24 2.406917 -5.200005
v -25.2 2.406917 -4.800003
v -8.799997 4.006917 -27.6
v -8.799997 3.806917 -25.6
v -7.999996 4.006917 -25.6
v -7.999996 4.006917 -27.6
v -10.8 4.006917 -25.2
v -10.8 3.806917 -22.8
v -9.999996 4.006917 -22.8
v -9.999996 3.806917 -25.2
v -26.8 6.006917 -17.60001
v -19.2 6.606917 -17.60001
v -20.8 6.606917 -19.2
v -20.8 6.606917 -19.2
v -20 6.606917 -21.60001
v -26.8 6.406917 -21.60001
v -26.8 6.006917 -17.60001
v -24 2.406917 -5.200005
v -24.8 2.406917 -5.200005
v -25.2 2.406917 -4.800003
v -1.199997 6.406917 -12
v 3.814697E-06 6.406917 -11.60001
v 3.814697E-06 6.406917 -28
v -28.4 4.006917 -21.2
v -28.4 3.806917 -18.8
v -27.6 3.806917 -18.8
v -27.6 4.006917 -21.2
v -26.8 6.006917 -17.60001
v -26.8 6.806917 -15.2
v -26 6.406917 -15.2
v -26.8 6.006917 -17.60001
v -26 6.406917 -15.2
v -25.2 6.406917 -15.2
v -19.2 6.606917 -17.60001
v -9.599997 6.406917 -27.6
v -18.8 6.606917 -21.60001
v -17.2 6.606917 -20
v -18 6.606917 -17.60001
v -19.2 6.606917 -17.60001
v -25.2 6.406917 -15.2
v -8.799997 4.006917 -17.60001
v -8.799997 3.806917 -15.60001
v -7.999996 4.006917 -15.60001
v -7.999996 3.806917 -17.60001
v -26 6.406917 -15.2
v -26.8 6.806917 -15.2
v -26.8 6.806917 -14
v -22 2.406917 -5.600006
v -22.4 2.406917 -5.600006
v -23.6 2.406917 -5.200005
v -22.4 2.406917 -5.600006
v -23.2 2.406917 -5.600006
v -23.6 2.406917 -5.200005
v -23.2 2.406917 -5.600006
v -22.4 2.406917 -5.600006
v -23.2 2.406917 -6.400002
v -10.8 4.006917 -13.60001
v -9.999996 4.006917 -10.8
v -9.999996 3.806917 -13.60001
v -26.8 4.006917 -11.60001
v -26.8 4.406917 -10.8
v -24.8 3.806917 -10.8
v -24.8 3.806917 -11.60001
v -16.8 3.806917 -11.60001
v -16.8 4.006917 -10.8
v -14.8 3.806917 -10.8
v -14.8 3.806917 -11.60001
v 3.814697E-06 3.806917 -10.8
v 3.814697E-06 3.806917 -11.2
v -1.199997 3.806917 -11.2
v -20 2.606917 -9.600006
v -17.6 2.806917 -9.600006
v -20.4 2.806917 -10
v -20 2.606917 -9.600006
v -20.4 2.406917 -8.400002
v -19.2 2.406917 -6.800003
v -17.6 2.806917 -9.600006
v -19.2 2.406917 -6.800003
v -21.6 2.406917 -6.400002
v -22 2.406917 -5.600006
v -9.599997 6.406917 -27.6
v -17.2 6.606917 -20
v -18 6.606917 -17.60001
v -1.999996 2.806917 -8
v -2.399996 2.806917 -9.600006
v -11.6 2.606917 -9.600006
v -14 2.806917 -9.600006
v -17.6 2.806917 -9.600006
v -19.2 2.406917 -6.800003
v -11.6 2.606917 -9.600006
v -14 2.806917 -9.600006
v -19.2 2.406917 -6.800003
v -24 6.206917 -14.4
v -24 6.206917 -13.2
v -22 6.406917 -12
v -18 6.606917 -17.60001
v -25.2 2.406917 -4.800003
v -26.4 2.406917 -1.600006
v -24 2.406917 -1.200005
v -23.6 2.406917 -5.200005
v 3.814697E-06 2.406917 0
v 3.814697E-06 2.806917 -7.200005
v -1.999996 2.806917 -8
v -11.6 2.606917 -9.600006
v -19.2 2.406917 -6.800003
v -24 2.406917 -1.200005
v -22 2.406917 -5.600006
v -23.6 2.406917 -5.200005
v -24 2.406917 -1.200005
v -19.2 2.406917 -6.800003
v -22 2.406917 -5.600006
v -24 2.406917 -1.200005
f 1 2 3
f 4 5 6
f 7 8 9
f 7 9 10
f 11 12 13
f 14 15 16
f 17 18 19
f 20 21 22
f 20 22 23
f 20 23 24
f 25 26 27
f 25 27 28
f 29 30 31
f 32 33 34
f 32 34 35
f 36 37 38
f 36 38 39
f 40 41 42
f 43 44 45
f 43 45 46
f 47 48 49
f 47 49 50
f 51 52 53
f 54 55 56
f 57 58 59
f 60 61 62
f 60 62 63
f 64 65 66
f 67 68 69
f 67 69 70
f 71 72 73
f 71 73 74
f 75 76 77
f 78 79 80
f 78 80 81
f 82 83 84
f 85 86 87
f 85 87 88
f 89 90 91
f 92 93 94
f 95 96 97
f 98 99 100
f 98 100 101
f 98 101 102
f 98 102 103
f 104 105 106
f 107 108 109
f 107 109 110
f 111 112 113
f 111 113 114
f 115 116 117
f 118 119 120
f 118 120 121
f 122 123 124
f 125 126 127
f 125 127 128
f 129 130 131
f 132 133 134
f 135 136 137
f 138 139 140
f 138 140 141
f 142 143 144
f 145 146 147
f 145 147 148
f 149 150 151
f 152 153 154
f 155 156 157
f 158 159 160
f 161 162 163
f 164 165 166
f 164 166 167
f 168 169 170
f 171 172 173
f 171 173 174
f 175 176 177
f 178 179 180
f 181 182 183
f 181 183 184
f 181 184 185
f 181 185 186
f 187 188 189
f 190 191 192
f 193 194 195
f 196 197 198
f 196 198 199
f 200 201 202
f 200 202 203
f 204 205 206
f 207 208 209
f 210 211 212
f 210 212 213
f 214 215 216
f 214 216 217
f 218 219 220
f 221 222 223
f 224 225 226
f 227 228 229
f 227 229 230
f 231 232 233
f 231 233 234
f 231 234 235
f 236 237 238
f 239 240 241
f 239 241 242
f 243 244 245
f 246 247 248
f 249 250 251
f 252 253 254
f 255 256 257
f 255 257 258
f 259 260 261
f 259 261 262
f 263 264 265
f 266 267 268
f 266 268 269
f 270 271 272
f 270 272 273
f 274 275 276
f 277 278 279
f 277 279 280
f 277 280 281
f 282 283 284
f 285 286 287
f 288 289 290
f 291 292 293
f 294 295 296
f 297 298 299
f 300 301 302
f 303 304 305
f 303 305 306
f 307 308 309
f 310 311 312
f 313 314 315
f 316 317 318
f 316 318 319
f 320 321 322
f 323 324 325
f 326 327 328
f 329 330 331
f 329 331 332
f 333 334 335
f 333 335 336
f 333 336 337
f 338 339 340
f 341 342 343
f 341 343 344
f 345 346 347
f 345 347 348
f 349 350 351
f 349 351 352
f 353 354 355
f 356 357 358
f 359 360 361
f 362 363 364
f 365 366 367
f 365 367 368
f 369 370 371
f 372 373 374
f 372 374 375
f 376 377 378
f 376 378 379
f 380 381 382
f 383 384 385
f 383 385 386
f 383 386 387
f 388 389 390
f 388 390 391
f 392 393 394
f 392 394 395
f 396 397 398
f 396 398 399
f 400 401 402
f 400 402 403
f 404 405 406
f 407 408 409
f 407 409 410
f 411 412 413
f 411 413 414
f 415 416 417
f 415 417 418
f 419 420 421
f 419 421 422
f 419 422 423
f 424 425 426
f 427 428 429
f 430 431 432
f 430 432 433
f 434 435 436
f 437 438 439
f 440 441 442
f 443 444 445
f 443 445 446
f 447 448 449
f 447 449 450
f 451 452 453
f 451 453 454
f 451 454 455
f 456 457 458
f 456 458 459
f 456 459 460
f 461 462 463
f 464 465 466
f 467 468 469
f 470 471 472
f 473 474 475
f 476 477 478
f 479 480 481
f 482 483 484
f 482 484 485
f 482 485 486
f 482 486 487
f 488 489 490
f 491 492 493
f 491 493 494
f 495 496 497
f 495 497 498
f 499 500 501
f 499 501 502
f 499 502 503
f 504 505 506
f 504 506 507
f 504 507 508
f 509 510 511
f 512 513 514
f 515 516 517
f 515 517 518
f 519 520 521
f 519 521 522
f 519 522 523
f 524 525 526
f 527 528 529
f 530 531 532
f 530 532 533
f 534 535 536
f 534 536 537
f 538 539 540
f 541 542 543
f 541 543 544
f 545 546 547
f 548 549 550
f 551 552 553
f 554 555 556
f 557 558 559
f 557 559 560
f 561 562 563
f 564 565 566
f 564 566 567
f 568 569 570
f 568 570 571
f 572 573 574
f 575 576 577
f 578 579 580
f 578 580 581
f 582 583 584
f 582 584 585
f 582 585 586
f 587 588 589
f 587 589 590
f 591 592 593
f 594 595 596
f 594 596 597
f 594 597 598
f 594 598 599
f 600 601 602
f 603 604 605
f 603 605 606
f 607 608 609
f 610 611 612
f 613 614 615
f 616 617 618
f 616 618 619
f 620 621 622
f 620 622 623
f 620 623 624
f 625 626 627
f 628 629 630
f 628 630 631
f 632 633 634
f 635 636 637
f 638 639 640
f 638 640 641
f 642 643 644
f 645 646 647
f 645 647 648
f 649 650 651
f 652 653 654
f 655 656 657
f 655 657 658
f 659 660 661
f 662 663 664
f 662 664 665
f 666 667 668
f 666 668 669
f 670 671 672
f 670 672 673
f 674 675 676
f 677 678 679
f 677 679 680
f 677 680 681
f 677 681 682
f 683 684 685
f 683 685 686
f 683 686 687
f 688 689 690
f 688 690 691
f 688 691 692
f 693 694 695
f 696 697 698
f 699 700 701
f 699 701 702
f 703 704 705
f 703 705 706
f 707 708 709
f 707 709 710
f 711 712 713
f 711 713 714
f 711 714 715
f 711 715 716
f 717 718 719
f 720 721 722
f 723 724 725
f 726 727 728
f 726 728 729
f 730 731 732
f 733 734 735
f 733 735 736
f 737 738 739
f 737 739 740
f 741 742 743
f 741 743 744
f 741 744 745
f 746 747 748
f 746 748 749
f 750 751 752
f 753 754 755
f 756 757 758
f 759 760 761
f 759 761 762
f 763 764 765
f 763 765 766
f 767 768 769
f 770 771 772
f 770 772 773
f 774 775 776
f 774 776 777
f 774 777 778
f 774 778 779
f 780 781 782
f 783 784 785
f 783 785 786
f 787 788 789
f 787 789 790
f 791 792 793
f 794 795 796
f 797 798 799
f 797 799 800
f 801 802 803
f 801 803 804
f 801 804 805
f 806 807 808
f 809 810 811
f 809 811 812
f 813 814 815
f 813 815 816
f 817 818 819
f 820 821 822
f 823 824 825
f 826 827 828
f 829 830 831
f 829 831 832
f 833 834 835
f 836 837 838
f 839 840 841
f 842 843 844
f 845 846 847
f 845 847 848
f 849 850 851
f 849 851 852
f 853 854 855
f 853 855 856
f 857 858 859
f 860 861 862
f 863 864 865
f 866 867 868
f 869 870 871
f 869 871 872
f 869 872 873
f 874 875 876
f 877 878 879
f 880 881 882
f 883 884 885
f 886 887 888
f 889 890 891
f 889 891 892
f 893 894 895
f 896 897 898
f 896 898 899
f 896 899 900
f 901 902 903
f 904 905 906
f 904 906 907
f 908 909 910
f 908 910 911
f 912 913 914
f 915 916 917
f 915 917 918
f 919 920 921
f 922 923 924
f 925 926 927
f 925 927 928
f 929 930 931
f 932 933 934
f 932 934 935
f 936 937 938
f 939 940 941
f 942 943 944
f 942 944 945
f 946 947 948
f 949 950 951
f 952 953 954
f 955 956 957
f 958 959 960
f 961 962 963
f 961 963 964
f 965 966 967
f 965 967 968
f 969 970 971
f 972 973 974
f 975 976 977
f 975 977 978
f 979 980 981
f 982 983 984
f 985 986 987
f 988 989 990
f 991 992 993
f 994 995 996
f 994 996 997
f 998 999 1000
f 998 1000 1001
f 1002 1003 1004
f 1002 1004 1005
f 1002 1005 1006
f 1002 1006 1007
f 1008 1009 1010
f 1011 1012 1013
